<svg width="410" height="92" viewBox="0 0 410 92" fill="none" xmlns="http://www.w3.org/2000/svg">
<g clip-path="url(#clip0_254_876)">
<path fill-rule="evenodd" clip-rule="evenodd" d="M41.4182 14.3687L40.7129 13.8944L39.9809 13.4472L39.2193 13.0148L38.4322 12.6096L37.6137 12.2218L36.7703 11.8832L35.8978 11.5593L35.0247 11.2631L34.1244 11.0036L33.224 10.7667L32.2913 10.5561L31.3619 10.3831L30.4041 10.2322L29.4753 10.1237L28.5181 10.0597L27.5603 10.0173L26.6327 10L25.6743 10.0173L24.7171 10.0817L23.7889 10.1682L22.8885 10.3187L21.9557 10.47L21.0833 10.6841L20.1829 10.9392L19.3394 11.2186L18.4937 11.5372L17.7048 11.9048L16.9165 12.3078L16.1538 12.7601L15.4241 13.2518L14.7188 13.7862L14.0727 14.3687H41.4182Z" fill="black"/>
<path fill-rule="evenodd" clip-rule="evenodd" d="M58.26 82L58.8309 81.8638L59.4309 81.7117L60 81.5547L60.5715 81.3778L61.1115 81.2115L61.6503 81.0094L62.1594 80.8121L62.6383 80.6202L63.1166 80.423L63.538 80.2204L63.9569 80.0241L64.3147 79.8109L64.6779 79.6097L64.9758 79.4115L65.247 79.2156L65.4541 79.0179L18.7273 79.0256C19.4669 79.7433 19.71 79.9699 21.3454 80.7808C22.5995 81.4026 23.6963 81.6871 25.1079 82H58.26Z" fill="black"/>
<path fill-rule="evenodd" clip-rule="evenodd" d="M68.6322 76.5874C69.1556 76.3791 70.9508 74.9889 71.3913 73.7667H13.2746C13.8688 74.9947 14.6545 75.7491 16.2042 76.5874H68.6322Z" fill="black"/>
<path fill-rule="evenodd" clip-rule="evenodd" d="M72.8945 71.5728C72.8945 71.5728 74 70.5067 74 68.5509L10.6567 68.5509C10.8164 69.5922 11.0015 70.4243 12.0364 71.5728H72.8945Z" fill="black"/>
<path fill-rule="evenodd" clip-rule="evenodd" d="M29.2 66.3564V65.7278V64.8294V63.9314V63.2983H10.5818V63.9314V64.8294V65.7278V66.3564H29.2Z" fill="black"/>
<path fill-rule="evenodd" clip-rule="evenodd" d="M74 66.3564V65.7278V64.8294V63.9314V63.2983H50.7273L50.8532 63.4127L50.9774 63.5476L51.0613 63.7293L51.1888 63.9314L51.3483 64.357L51.5161 64.8294L51.7687 65.7278L51.9718 66.3564H74Z" fill="black"/>
<path fill-rule="evenodd" clip-rule="evenodd" d="M29.2 60.2402V59.4738V58.7282V57.977V57.1821H10.5818V57.977V58.7282V59.4738V60.2402H29.2Z" fill="black"/>
<path fill-rule="evenodd" clip-rule="evenodd" d="M74 60.1398V59.3557V58.5928V57.8242V57.0109H42.6429L43.2429 57.5371L43.8731 57.9957L44.5045 58.4358L45.1602 58.8502L45.8213 59.2248L46.5109 59.5732L47.2283 59.8819L47.9505 60.1398H74Z" fill="black"/>
<path fill-rule="evenodd" clip-rule="evenodd" d="M29.2 54.5608L29.1209 53.8547L29.0949 53.124L29.0678 52.3257V51.5027H10L10.0238 52.3257L10.0493 53.124L10.0769 53.8547L10.1035 54.5608H29.2Z" fill="black"/>
<path fill-rule="evenodd" clip-rule="evenodd" d="M74 54.3822V53.6193V52.871V52.1086V51.3599H39.3186L39.4052 51.8194L39.5257 52.239L39.6474 52.6287L39.7975 53.0276L39.9743 53.3968L40.1559 53.7506L40.3636 54.0744L40.6039 54.3822H74Z" fill="black"/>
<path fill-rule="evenodd" clip-rule="evenodd" d="M29.2 48.8815V48.092L29.1722 47.33L29.1455 46.5632L29.0637 45.8234H10V46.5632V47.33V48.092V48.8815H29.2Z" fill="black"/>
<path fill-rule="evenodd" clip-rule="evenodd" d="M74 48.6865V48.1854V47.7056V47.2501V46.7857V46.5633V46.3505L73.9395 46.1077L73.8474 45.8857H38.9003L38.8398 46.6292V47.3314V48.0284L38.9003 48.6865H74Z" fill="black"/>
<path fill-rule="evenodd" clip-rule="evenodd" d="M29.4093 43.6391L29.4633 43.1561L29.5438 42.6721L29.6254 42.2365L29.7357 41.7958L29.8696 41.3616L30.0064 40.9493L30.1718 40.5569L30.3636 40.1441H10V40.6015V41.0427V41.4778V41.913V42.3532V42.7893V43.2304V43.6391H29.4093Z" fill="black"/>
<path fill-rule="evenodd" clip-rule="evenodd" d="M73.1003 43.6311L72.86 43.1716L72.6202 42.7112L72.349 42.2968L72.1123 41.8776L71.8405 41.4645L71.5723 41.0722L71.301 40.699L71.002 40.3063H41.3558L40.8769 40.787L40.3938 41.3097L40.0255 41.7406L39.7334 42.1594L39.5489 42.4563L39.4336 42.732L39.3447 43.0398L39.2569 43.3485L39.2569 43.6311H73.1003Z" fill="black"/>
<path fill-rule="evenodd" clip-rule="evenodd" d="M32.3317 37.9597L32.77 37.6505L33.2377 37.3547L33.7032 37.1033L34.2252 36.866L34.7754 36.6493L35.3506 36.4781L35.9529 36.2994L36.5841 36.1412L36.9404 35.9447L37.2717 35.7521L37.5721 35.5556L37.9273 35.3385H10V35.9447V36.5706V37.2369V37.9597H32.3317Z" fill="black"/>
<path fill-rule="evenodd" clip-rule="evenodd" d="M69.1113 38.1761L68.4817 37.633L67.8236 37.0846L67.1631 36.6074L66.4736 36.1422L65.7574 35.7305L65.0351 35.3537L64.2886 35.0069L63.5379 34.6991L62.7594 34.4338L61.9475 34.1959L61.1696 34.0194L60.3583 33.8421L59.5211 33.7337L58.6808 33.6453L57.8417 33.5997L57.0044 33.5842L56.1617 33.5997L55.3244 33.6678L54.4859 33.7793L53.6135 33.9106L52.7768 34.0645L51.9359 34.2564L51.0968 34.4992L50.2589 34.7876L49.4168 35.0905L48.6098 35.4218L47.798 35.7906L46.9897 36.2103L46.2106 36.645L45.4623 37.1302L44.6807 37.6533L43.9633 38.1761H69.1113Z" fill="black"/>
<path fill-rule="evenodd" clip-rule="evenodd" d="M40.8682 32.7173H10V32.2775V31.8568V31.4122V30.972V30.527V30.085V29.6443V29.2224H43.7455L43.4706 29.6443L43.1672 30.085L42.8342 30.527L42.5012 30.972L42.1146 31.4122L41.7285 31.8568L41.314 32.2775L40.8682 32.7173Z" fill="black"/>
<path fill-rule="evenodd" clip-rule="evenodd" d="M45.4622 26.6011L45.5983 26.2165L45.7113 25.8365L45.8237 25.4518L45.9069 25.0723L45.9873 24.6876L46.0435 24.3077L46.0727 23.923V23.543H10.0854L10.0292 24.2879L10 25.0307V25.7953V26.6011H45.4622Z" fill="black"/>
<path fill-rule="evenodd" clip-rule="evenodd" d="M46.0727 20.9218L45.8777 20.3261L45.6504 19.7327L45.3673 19.1597L45.0876 18.6051L44.7505 18.0749L44.3821 17.5483L43.9615 17.0364L43.5386 16.553H12.4947L12.1832 17.0133L11.9035 17.502L11.6516 18.0321L11.3964 18.5819L11.169 19.1366L10.9451 19.7095L10.7489 20.3029L10.5818 20.9218H46.0727Z" fill="black"/>
<path fill-rule="evenodd" clip-rule="evenodd" d="M136.866 47.5657H127.15V52.2782H130.279C129.917 53.7896 128.082 54.7864 126.639 54.7864C123.059 54.7864 122.096 51.9769 122.096 48.8951C122.096 45.0588 123.42 42.5217 126.217 42.5217C128.052 42.5217 129.346 43.4871 129.857 45.2696H136.595C135.722 39.9232 131.541 37.2041 126.337 37.2041C119.33 37.2041 114.997 41.9769 114.997 48.9252C114.997 56.5074 119.961 60.1027 125.496 60.1027C128.895 60.1027 130.85 58.8336 132.024 57.4439L132.294 59.5893H136.866V47.5657V47.5657Z" fill="black"/>
<path fill-rule="evenodd" clip-rule="evenodd" d="M140.979 50.0437C140.979 57.5356 144.709 60.1028 151.416 60.1028C158.605 60.1028 161.824 57.051 161.824 50.0739V37.7778H154.725V50.7982C154.725 53.1545 153.974 54.7864 151.416 54.7864C148.499 54.7864 148.078 52.9436 148.078 50.7982V37.7778H140.979V50.0437V50.0437ZM150.604 35.6036V31.6769H145.52V35.6036H150.604ZM152.379 35.6036H157.463V31.6769H152.379V35.6036Z" fill="black"/>
<path fill-rule="evenodd" clip-rule="evenodd" d="M172.855 42.8532H176.164C177.819 42.8532 179.021 43.5788 179.021 45.1191C179.021 46.6305 177.849 47.174 175.653 47.174H172.855V42.8532V42.8532ZM175.021 51.9468C178.33 51.9468 178.811 52.8833 178.811 55.7229C178.811 57.6561 178.991 59.0445 179.173 59.5291H186.361V58.8637C185.519 58.8637 185.609 57.8971 185.609 55.0576C185.609 50.6777 184.226 50.1341 181.94 49.288C184.466 48.5938 185.579 46.4786 185.579 43.9717C185.579 39.7424 183.203 37.7778 175.984 37.7778H165.756V59.5291H172.855V51.9468H175.021V51.9468Z" fill="black"/>
<path fill-rule="evenodd" clip-rule="evenodd" d="M201.247 52.1276H196.765L198.962 44.3345L201.247 52.1276ZM194.599 59.5291L195.412 56.6594H202.48L203.323 59.5291H210.392L202.63 37.7778H195.412L187.65 59.5291H194.599V59.5291Z" fill="black"/>
<path fill-rule="evenodd" clip-rule="evenodd" d="M229.85 59.5291V54.4537H220.104V37.7778H213.004V59.5291H229.85Z" fill="black"/>
<path fill-rule="evenodd" clip-rule="evenodd" d="M241.534 40.1479H247.839C249.069 40.1479 251.412 40.7806 251.652 43.7658C251.892 46.8112 249.251 47.8054 248.711 47.8054H241.534V40.1479V40.1479ZM238.713 59.6245H241.534V50.3086H248.769C251.082 50.3676 255.074 48.3189 254.444 42.9824C253.873 38.1883 249.671 37.4338 247.869 37.6447H238.713V59.6245V59.6245Z" fill="black"/>
<path fill-rule="evenodd" clip-rule="evenodd" d="M266.688 39.8165C268.638 39.8165 270.651 40.5094 272.001 41.9267C273.473 43.4645 274.463 46.117 274.403 48.8009C274.463 51.4836 273.473 54.1374 272.001 55.6752C270.651 57.0912 268.638 57.7854 266.688 57.7854C264.736 57.7854 262.724 57.0912 261.373 55.6752C259.902 54.1374 258.912 51.4836 258.972 48.8009C258.912 46.117 259.902 43.4645 261.373 41.9267C262.724 40.5094 264.736 39.8165 266.688 39.8165V39.8165ZM266.688 37.2832C263.656 37.3133 261.013 38.6402 259.962 39.5453C257.141 41.987 256.149 45.6952 256.119 48.8009C256.089 51.9066 257.141 55.6137 259.962 58.0565C261.013 58.9604 263.656 60.2873 266.688 60.3174C269.721 60.2873 272.362 58.9604 273.412 58.0565C276.234 55.6137 277.286 51.9066 277.256 48.8009C277.226 45.6952 276.234 41.987 273.412 39.5453C272.362 38.6402 269.721 37.3133 266.688 37.2832V37.2832Z" fill="black"/>
<path fill-rule="evenodd" clip-rule="evenodd" d="M289.945 40.1479C291.686 40.1479 294.387 40.5998 293.997 44.3382C293.697 47.1728 291.836 47.685 289.975 47.685H282.919V40.1479H289.945ZM280.097 59.6245H282.919V50.1869H288C291.442 51.8803 292.303 54.6734 293.667 56.8502C294.117 57.5695 295.045 58.5989 295.465 59.6245H298.857V58.9014C297.866 58.1771 297.202 56.7334 295.746 54.5391C293.747 51.5288 294.487 51.8803 292.37 50.2848C296.208 49.2215 297.485 46.1171 297.335 43.2524C297.065 38.2787 293.277 37.6448 289.885 37.6448H280.097V59.6245V59.6245Z" fill="black"/>
<path fill-rule="evenodd" clip-rule="evenodd" d="M315.875 44.0671C315.963 43.0716 315.783 40.2684 312.811 38.4293C311.49 37.6159 309.328 37.2832 307.498 37.2832C302.183 37.2832 299.782 40.8408 300.142 44.3985C300.412 47.1426 302.093 48.1067 303.055 48.4381C305.996 49.4336 304.556 49.0721 307.527 49.765C308.998 50.0964 310.8 50.5195 312.091 51.1823C314.702 52.9913 313.622 55.5245 312.211 56.7296C311.431 57.3925 310.26 57.6649 309.118 57.7854C308.007 57.8758 306.897 57.7854 306.237 57.6649C302.453 57.0008 301.973 53.9566 302.003 52.6598H299.392C299.451 54.3784 299.512 55.7655 300.983 57.5444C302.933 59.8655 305.096 60.227 307.977 60.3174C312.691 60.468 316.803 57.6046 316.595 53.2021C316.503 51.0618 314.763 48.9516 312.871 48.2875C311.07 47.8054 309.268 47.2933 307.467 46.8112C305.996 46.5388 304.916 46.1773 304.135 45.7254C301.612 44.3382 302.513 39.6658 307.557 39.6658C308.668 39.6658 309.718 39.6357 311.19 40.5094C312.842 41.535 313.201 42.7703 313.142 44.0671H315.875V44.0671Z" fill="black"/>
<path fill-rule="evenodd" clip-rule="evenodd" d="M319.651 59.6245H335.352V57.1213H322.472V49.5843H334.361V47.0824H322.472V40.1479H334.842V37.6448H319.651V59.6245Z" fill="black"/>
<path fill-rule="evenodd" clip-rule="evenodd" d="M338.349 37.6448V59.6245H351.949V57.1213H341.171V37.6448H338.349Z" fill="black"/>
<path fill-rule="evenodd" clip-rule="evenodd" d="M354.31 59.6245H370.011V57.1213H357.131V49.5843H369.021V47.0824H357.131V40.1479H369.501V37.6448H354.31V59.6245Z" fill="black"/>
<path fill-rule="evenodd" clip-rule="evenodd" d="M390 59.6245V37.6448H387.179V55.4342L376.22 37.6448H372.887V59.6245H375.71V42.0171L386.788 59.6245H390Z" fill="black"/>
</g>
<defs>
<clipPath id="clip0_254_876">
<rect width="410" height="92" fill="white"/>
</clipPath>
</defs>
</svg>
